<?xml version="1.0" encoding="UTF-8" standalone="no"?><svg xmlns="http://www.w3.org/2000/svg" xmlns:xlink="http://www.w3.org/1999/xlink" contentScriptType="application/ecmascript" contentStyleType="text/css" height="396px" preserveAspectRatio="none" style="width:988px;height:396px;" version="1.1" viewBox="0 0 988 396" width="988px" zoomAndPan="magnify"><defs><filter height="300%" id="fd0ub88d0cut" width="300%" x="-1" y="-1"><feGaussianBlur result="blurOut" stdDeviation="2.0"/><feColorMatrix in="blurOut" result="blurOut2" type="matrix" values="0 0 0 0 0 0 0 0 0 0 0 0 0 0 0 0 0 0 .4 0"/><feOffset dx="4.0" dy="4.0" in="blurOut2" result="blurOut3"/><feBlend in="SourceGraphic" in2="blurOut3" mode="normal"/></filter></defs><g><text fill="#000000" font-family="sans-serif" font-size="14" font-weight="bold" lengthAdjust="spacingAndGlyphs" textLength="436" x="275.5" y="23.5352">Alice uses ETH to create THX tokens and sends them to Bob</text><rect fill="#EDECFF" height="343.9727" rx="5" ry="5" style="stroke: #BD10E0; stroke-width: 1.0;" width="397" x="83" y="34.4883"/><text fill="#000000" font-family="sans-serif" font-size="13" font-weight="bold" lengthAdjust="spacingAndGlyphs" textLength="86" x="238.5" y="47.0566">Gluon Token</text><rect fill="#EDECFF" height="343.9727" rx="5" ry="5" style="stroke: #BD10E0; stroke-width: 1.0;" width="149" x="502" y="34.4883"/><text fill="#000000" font-family="sans-serif" font-size="13" font-weight="bold" lengthAdjust="spacingAndGlyphs" textLength="139" x="507" y="47.0566">Gluon Token Factory</text><rect fill="#EDECFF" height="343.9727" rx="5" ry="5" style="stroke: #BD10E0; stroke-width: 1.0;" width="258" x="673" y="34.4883"/><text fill="#000000" font-family="sans-serif" font-size="13" font-weight="bold" lengthAdjust="spacingAndGlyphs" textLength="89" x="757.5" y="47.0566">Thanx Token</text><line style="stroke: #878787; stroke-width: 1.0; stroke-dasharray: 5.0,5.0;" x1="27" x2="27" y1="116.9766" y2="384.4609"/><line style="stroke: #878787; stroke-width: 1.0; stroke-dasharray: 5.0,5.0;" x1="157" x2="157" y1="116.9766" y2="384.4609"/><line style="stroke: #878787; stroke-width: 1.0; stroke-dasharray: 5.0,5.0;" x1="302" x2="302" y1="116.9766" y2="384.4609"/><line style="stroke: #878787; stroke-width: 1.0; stroke-dasharray: 5.0,5.0;" x1="426" x2="426" y1="116.9766" y2="384.4609"/><line style="stroke: #878787; stroke-width: 1.0; stroke-dasharray: 5.0,5.0;" x1="576" x2="576" y1="116.9766" y2="384.4609"/><line style="stroke: #878787; stroke-width: 1.0; stroke-dasharray: 5.0,5.0;" x1="747" x2="747" y1="116.9766" y2="384.4609"/><line style="stroke: #878787; stroke-width: 1.0; stroke-dasharray: 5.0,5.0;" x1="877" x2="877" y1="116.9766" y2="384.4609"/><line style="stroke: #878787; stroke-width: 1.0; stroke-dasharray: 5.0,5.0;" x1="963" x2="963" y1="116.9766" y2="384.4609"/><text fill="#000000" font-family="sans-serif" font-size="14" lengthAdjust="spacingAndGlyphs" textLength="33" x="8" y="114.0234">Alice</text><ellipse cx="27.5" cy="43.4883" fill="#FFFFFF" filter="url(#fd0ub88d0cut)" rx="8" ry="8" style="stroke: #BD10E0; stroke-width: 2.0;"/><path d="M27.5,51.4883 L27.5,78.4883 M14.5,59.4883 L40.5,59.4883 M27.5,78.4883 L14.5,93.4883 M27.5,78.4883 L40.5,93.4883 " fill="none" filter="url(#fd0ub88d0cut)" style="stroke: #BD10E0; stroke-width: 2.0;"/><rect fill="#FFFFFF" filter="url(#fd0ub88d0cut)" height="30.4883" rx="5" ry="5" style="stroke: #BD10E0; stroke-width: 1.5;" width="117" x="97" y="81.4883"/><text fill="#000000" font-family="sans-serif" font-size="14" lengthAdjust="spacingAndGlyphs" textLength="103" x="104" y="102.0234">Smart Contract</text><rect fill="#FFFFFF" filter="url(#fd0ub88d0cut)" height="30.4883" rx="5" ry="5" style="stroke: #BD10E0; stroke-width: 1.5;" width="105" x="248" y="81.4883"/><text fill="#000000" font-family="sans-serif" font-size="14" lengthAdjust="spacingAndGlyphs" textLength="91" x="255" y="102.0234">Funding Pool</text><rect fill="#FFFFFF" filter="url(#fd0ub88d0cut)" height="30.4883" rx="5" ry="5" style="stroke: #BD10E0; stroke-width: 1.5;" width="75" x="387" y="81.4883"/><text fill="#000000" font-family="sans-serif" font-size="14" lengthAdjust="spacingAndGlyphs" textLength="61" x="394" y="102.0234">ETH Pool</text><rect fill="#FFFFFF" filter="url(#fd0ub88d0cut)" height="30.4883" rx="5" ry="5" style="stroke: #BD10E0; stroke-width: 1.5;" width="117" x="516" y="81.4883"/><text fill="#000000" font-family="sans-serif" font-size="14" lengthAdjust="spacingAndGlyphs" textLength="103" x="523" y="102.0234">Smart Contract</text><rect fill="#FFFFFF" filter="url(#fd0ub88d0cut)" height="30.4883" rx="5" ry="5" style="stroke: #BD10E0; stroke-width: 1.5;" width="117" x="687" y="81.4883"/><text fill="#000000" font-family="sans-serif" font-size="14" lengthAdjust="spacingAndGlyphs" textLength="103" x="694" y="102.0234">Smart Contract</text><rect fill="#FFFFFF" filter="url(#fd0ub88d0cut)" height="30.4883" rx="5" ry="5" style="stroke: #BD10E0; stroke-width: 1.5;" width="75" x="838" y="81.4883"/><text fill="#000000" font-family="sans-serif" font-size="14" lengthAdjust="spacingAndGlyphs" textLength="61" x="845" y="102.0234">GLU Pool</text><text fill="#000000" font-family="sans-serif" font-size="14" lengthAdjust="spacingAndGlyphs" textLength="26" x="947" y="114.0234">Bob</text><ellipse cx="963" cy="43.4883" fill="#FFFFFF" filter="url(#fd0ub88d0cut)" rx="8" ry="8" style="stroke: #BD10E0; stroke-width: 2.0;"/><path d="M963,51.4883 L963,78.4883 M950,59.4883 L976,59.4883 M963,78.4883 L950,93.4883 M963,78.4883 L976,93.4883 " fill="none" filter="url(#fd0ub88d0cut)" style="stroke: #BD10E0; stroke-width: 2.0;"/><polygon fill="#BD10E0" points="145.5,144.2871,155.5,148.2871,145.5,152.2871,149.5,148.2871" style="stroke: #BD10E0; stroke-width: 1.0;"/><line style="stroke: #BD10E0; stroke-width: 1.0;" x1="27.5" x2="151.5" y1="148.2871" y2="148.2871"/><text fill="#000000" font-family="sans-serif" font-size="13" lengthAdjust="spacingAndGlyphs" textLength="106" x="34.5" y="143.5449">Sends 0.001 ETH</text><polygon fill="#BD10E0" points="290.5,173.5977,300.5,177.5977,290.5,181.5977,294.5,177.5977" style="stroke: #BD10E0; stroke-width: 1.0;"/><line style="stroke: #BD10E0; stroke-width: 1.0;" x1="157.5" x2="296.5" y1="177.5977" y2="177.5977"/><text fill="#000000" font-family="sans-serif" font-size="13" lengthAdjust="spacingAndGlyphs" textLength="115" x="164.5" y="172.8555">Tx Fee 0.01 % ETH</text><polygon fill="#BD10E0" points="414.5,202.9082,424.5,206.9082,414.5,210.9082,418.5,206.9082" style="stroke: #BD10E0; stroke-width: 1.0;"/><line style="stroke: #BD10E0; stroke-width: 1.0;" x1="157.5" x2="420.5" y1="206.9082" y2="206.9082"/><text fill="#000000" font-family="sans-serif" font-size="13" lengthAdjust="spacingAndGlyphs" textLength="142" x="164.5" y="202.166">Stakes 0.0009999 ETH</text><line style="stroke: #BD10E0; stroke-width: 1.0;" x1="157.5" x2="199.5" y1="236.2188" y2="236.2188"/><line style="stroke: #BD10E0; stroke-width: 1.0;" x1="199.5" x2="199.5" y1="236.2188" y2="249.2188"/><line style="stroke: #BD10E0; stroke-width: 1.0;" x1="158.5" x2="199.5" y1="249.2188" y2="249.2188"/><polygon fill="#BD10E0" points="168.5,245.2188,158.5,249.2188,168.5,253.2188,164.5,249.2188" style="stroke: #BD10E0; stroke-width: 1.0;"/><text fill="#000000" font-family="sans-serif" font-size="13" lengthAdjust="spacingAndGlyphs" textLength="84" x="164.5" y="231.4766">Mints 10 GLU</text><polygon fill="#BD10E0" points="564.5,274.5293,574.5,278.5293,564.5,282.5293,568.5,278.5293" style="stroke: #BD10E0; stroke-width: 1.0;"/><line style="stroke: #BD10E0; stroke-width: 1.0;" x1="157.5" x2="570.5" y1="278.5293" y2="278.5293"/><text fill="#000000" font-family="sans-serif" font-size="13" lengthAdjust="spacingAndGlyphs" textLength="158" x="164.5" y="273.7871">Creates token (+ 10 GLU)</text><polygon fill="#BD10E0" points="735.5,303.8398,745.5,307.8398,735.5,311.8398,739.5,307.8398" style="stroke: #BD10E0; stroke-width: 1.0;"/><line style="stroke: #BD10E0; stroke-width: 1.0;" x1="576.5" x2="741.5" y1="307.8398" y2="307.8398"/><text fill="#000000" font-family="sans-serif" font-size="13" lengthAdjust="spacingAndGlyphs" textLength="86" x="583.5" y="303.0977">Sends 10 GLU</text><polygon fill="#BD10E0" points="865.5,333.1504,875.5,337.1504,865.5,341.1504,869.5,337.1504" style="stroke: #BD10E0; stroke-width: 1.0;"/><line style="stroke: #BD10E0; stroke-width: 1.0;" x1="747.5" x2="871.5" y1="337.1504" y2="337.1504"/><text fill="#000000" font-family="sans-serif" font-size="13" lengthAdjust="spacingAndGlyphs" textLength="90" x="754.5" y="332.4082">Stakes 10 GLU</text><polygon fill="#BD10E0" points="951,362.4609,961,366.4609,951,370.4609,955,366.4609" style="stroke: #BD10E0; stroke-width: 1.0;"/><line style="stroke: #BD10E0; stroke-width: 1.0;" x1="747.5" x2="957" y1="366.4609" y2="366.4609"/><text fill="#000000" font-family="sans-serif" font-size="13" lengthAdjust="spacingAndGlyphs" textLength="93" x="754.5" y="361.7188">Mints 500 THX</text><!--
@startuml
skinparam roundcorner 10
skinparam BoxPadding 10
skinparam headerFontColor #BD10E0
skinparam headerFontSize 18
skinparam sequence {
  ArrowColor #BD10E0
  GroupBackgroundColor #BD10E0
  GroupBorderColor #EDECFF
  GroupHeaderFontColor #ffffff
  BoxBorderColor #BD10E0
  BoxBackgroundColor #EDECFF
  BoxPadding 10

  ParticipantBorderColor #BD10E0
  ParticipantBackgroundColor #ffffff
  ParticipantPadding 10

  ActorBorderColor #BD10E0
  ActorBackgroundColor #ffffff
  EntityBorderColor #BD10E0
  EntityBackgroundColor #ffffff
  DatabaseBorderColor #BD10E0
  DatabaseBackgroundColor #ffffff

  LifeLineBorderColor #878787
}

hide footbox
title Alice uses ETH to create THX tokens and sends them to Bob 
actor Alice
box "Gluon Token"
  participant "Smart Contract" as GluonSC
  participant "Funding Pool" as FundingPool
  participant "ETH Pool" as ETHPool
end box
box "Gluon Token Factory"
  participant "Smart Contract" as GluonFactorySC
end box
box "Thanx Token"
  participant "Smart Contract" as ThanxSC
  participant "GLU Pool" as THXGLUPool
end box
actor Bob

Alice -> GluonSC : Sends 0.001 ETH
GluonSC -> FundingPool : Tx Fee 0.01 % ETH
GluonSC -> ETHPool : Stakes 0.0009999 ETH
GluonSC -> GluonSC : Mints 10 GLU
GluonSC -> GluonFactorySC : Creates token (+ 10 GLU)
GluonFactorySC -> ThanxSC : Sends 10 GLU

ThanxSC -> THXGLUPool : Stakes 10 GLU
ThanxSC -> Bob : Mints 500 THX

@enduml

PlantUML version 1.2018.03(Thu Apr 05 19:59:15 EEST 2018)
(GPL source distribution)
Java Runtime: Java(TM) SE Runtime Environment
JVM: Java HotSpot(TM) 64-Bit Server VM
Java Version: 1.8.0_144-b01
Operating System: Mac OS X
OS Version: 10.12.6
Default Encoding: UTF-8
Language: en
Country: US
--></g></svg>