<?xml version="1.0" encoding="UTF-8" standalone="no"?><svg xmlns="http://www.w3.org/2000/svg" xmlns:xlink="http://www.w3.org/1999/xlink" contentScriptType="application/ecmascript" contentStyleType="text/css" height="468px" preserveAspectRatio="none" style="width:1160px;height:468px;" version="1.1" viewBox="0 0 1160 468" width="1160px" zoomAndPan="magnify"><defs><filter height="300%" id="fy7ux65pmtwkh" width="300%" x="-1" y="-1"><feGaussianBlur result="blurOut" stdDeviation="2.0"/><feColorMatrix in="blurOut" result="blurOut2" type="matrix" values="0 0 0 0 0 0 0 0 0 0 0 0 0 0 0 0 0 0 .4 0"/><feOffset dx="4.0" dy="4.0" in="blurOut2" result="blurOut3"/><feBlend in="SourceGraphic" in2="blurOut3" mode="normal"/></filter></defs><g><text fill="#000000" font-family="sans-serif" font-size="14" font-weight="bold" lengthAdjust="spacingAndGlyphs" textLength="264" x="449.5" y="23.5352">Alice uses USD to create THX tokens</text><rect fill="#EDECFF" height="415.5938" rx="5" ry="5" style="stroke: #BD10E0; stroke-width: 1.0;" width="139" x="104.5" y="34.4883"/><text fill="#000000" font-family="sans-serif" font-size="13" font-weight="bold" lengthAdjust="spacingAndGlyphs" textLength="133" x="107.5" y="47.0566">3rd Party Exchange</text><rect fill="#EDECFF" height="415.5938" rx="5" ry="5" style="stroke: #BD10E0; stroke-width: 1.0;" width="397" x="301" y="34.4883"/><text fill="#000000" font-family="sans-serif" font-size="13" font-weight="bold" lengthAdjust="spacingAndGlyphs" textLength="86" x="456.5" y="47.0566">Gluon Token</text><rect fill="#EDECFF" height="415.5938" rx="5" ry="5" style="stroke: #BD10E0; stroke-width: 1.0;" width="149" x="720" y="34.4883"/><text fill="#000000" font-family="sans-serif" font-size="13" font-weight="bold" lengthAdjust="spacingAndGlyphs" textLength="139" x="725" y="47.0566">Gluon Token Factory</text><rect fill="#EDECFF" height="415.5938" rx="5" ry="5" style="stroke: #BD10E0; stroke-width: 1.0;" width="258" x="891" y="34.4883"/><text fill="#000000" font-family="sans-serif" font-size="13" font-weight="bold" lengthAdjust="spacingAndGlyphs" textLength="89" x="975.5" y="47.0566">Thanx Token</text><line style="stroke: #878787; stroke-width: 1.0; stroke-dasharray: 5.0,5.0;" x1="27" x2="27" y1="116.9766" y2="456.082"/><line style="stroke: #878787; stroke-width: 1.0; stroke-dasharray: 5.0,5.0;" x1="174" x2="174" y1="116.9766" y2="456.082"/><line style="stroke: #878787; stroke-width: 1.0; stroke-dasharray: 5.0,5.0;" x1="375" x2="375" y1="116.9766" y2="456.082"/><line style="stroke: #878787; stroke-width: 1.0; stroke-dasharray: 5.0,5.0;" x1="520" x2="520" y1="116.9766" y2="456.082"/><line style="stroke: #878787; stroke-width: 1.0; stroke-dasharray: 5.0,5.0;" x1="644" x2="644" y1="116.9766" y2="456.082"/><line style="stroke: #878787; stroke-width: 1.0; stroke-dasharray: 5.0,5.0;" x1="794" x2="794" y1="116.9766" y2="456.082"/><line style="stroke: #878787; stroke-width: 1.0; stroke-dasharray: 5.0,5.0;" x1="965" x2="965" y1="116.9766" y2="456.082"/><line style="stroke: #878787; stroke-width: 1.0; stroke-dasharray: 5.0,5.0;" x1="1095" x2="1095" y1="116.9766" y2="456.082"/><text fill="#000000" font-family="sans-serif" font-size="14" lengthAdjust="spacingAndGlyphs" textLength="33" x="8" y="114.0234">Alice</text><ellipse cx="27.5" cy="43.4883" fill="#FFFFFF" filter="url(#fy7ux65pmtwkh)" rx="8" ry="8" style="stroke: #BD10E0; stroke-width: 2.0;"/><path d="M27.5,51.4883 L27.5,78.4883 M14.5,59.4883 L40.5,59.4883 M27.5,78.4883 L14.5,93.4883 M27.5,78.4883 L40.5,93.4883 " fill="none" filter="url(#fy7ux65pmtwkh)" style="stroke: #BD10E0; stroke-width: 2.0;"/><rect fill="#FFFFFF" filter="url(#fy7ux65pmtwkh)" height="30.4883" rx="5" ry="5" style="stroke: #BD10E0; stroke-width: 1.5;" width="36" x="154" y="81.4883"/><text fill="#000000" font-family="sans-serif" font-size="14" lengthAdjust="spacingAndGlyphs" textLength="22" x="161" y="102.0234">API</text><rect fill="#FFFFFF" filter="url(#fy7ux65pmtwkh)" height="30.4883" rx="5" ry="5" style="stroke: #BD10E0; stroke-width: 1.5;" width="117" x="315" y="81.4883"/><text fill="#000000" font-family="sans-serif" font-size="14" lengthAdjust="spacingAndGlyphs" textLength="103" x="322" y="102.0234">Smart Contract</text><rect fill="#FFFFFF" filter="url(#fy7ux65pmtwkh)" height="30.4883" rx="5" ry="5" style="stroke: #BD10E0; stroke-width: 1.5;" width="105" x="466" y="81.4883"/><text fill="#000000" font-family="sans-serif" font-size="14" lengthAdjust="spacingAndGlyphs" textLength="91" x="473" y="102.0234">Funding Pool</text><rect fill="#FFFFFF" filter="url(#fy7ux65pmtwkh)" height="30.4883" rx="5" ry="5" style="stroke: #BD10E0; stroke-width: 1.5;" width="75" x="605" y="81.4883"/><text fill="#000000" font-family="sans-serif" font-size="14" lengthAdjust="spacingAndGlyphs" textLength="61" x="612" y="102.0234">ETH Pool</text><rect fill="#FFFFFF" filter="url(#fy7ux65pmtwkh)" height="30.4883" rx="5" ry="5" style="stroke: #BD10E0; stroke-width: 1.5;" width="117" x="734" y="81.4883"/><text fill="#000000" font-family="sans-serif" font-size="14" lengthAdjust="spacingAndGlyphs" textLength="103" x="741" y="102.0234">Smart Contract</text><rect fill="#FFFFFF" filter="url(#fy7ux65pmtwkh)" height="30.4883" rx="5" ry="5" style="stroke: #BD10E0; stroke-width: 1.5;" width="117" x="905" y="81.4883"/><text fill="#000000" font-family="sans-serif" font-size="14" lengthAdjust="spacingAndGlyphs" textLength="103" x="912" y="102.0234">Smart Contract</text><rect fill="#FFFFFF" filter="url(#fy7ux65pmtwkh)" height="30.4883" rx="5" ry="5" style="stroke: #BD10E0; stroke-width: 1.5;" width="75" x="1056" y="81.4883"/><text fill="#000000" font-family="sans-serif" font-size="14" lengthAdjust="spacingAndGlyphs" textLength="61" x="1063" y="102.0234">GLU Pool</text><polygon fill="#BD10E0" points="162,144.2871,172,148.2871,162,152.2871,166,148.2871" style="stroke: #BD10E0; stroke-width: 1.0;"/><line style="stroke: #BD10E0; stroke-width: 1.0;" x1="27.5" x2="168" y1="148.2871" y2="148.2871"/><text fill="#000000" font-family="sans-serif" font-size="13" lengthAdjust="spacingAndGlyphs" textLength="87" x="34.5" y="143.5449">Sends 10 USD</text><line style="stroke: #BD10E0; stroke-width: 1.0;" x1="174" x2="216" y1="177.5977" y2="177.5977"/><line style="stroke: #BD10E0; stroke-width: 1.0;" x1="216" x2="216" y1="177.5977" y2="190.5977"/><line style="stroke: #BD10E0; stroke-width: 1.0;" x1="175" x2="216" y1="190.5977" y2="190.5977"/><polygon fill="#BD10E0" points="185,186.5977,175,190.5977,185,194.5977,181,190.5977" style="stroke: #BD10E0; stroke-width: 1.0;"/><text fill="#000000" font-family="sans-serif" font-size="13" lengthAdjust="spacingAndGlyphs" textLength="124" x="181" y="172.8555">Takes 0.10 USD Fee</text><polygon fill="#BD10E0" points="363.5,215.9082,373.5,219.9082,363.5,223.9082,367.5,219.9082" style="stroke: #BD10E0; stroke-width: 1.0;"/><line style="stroke: #BD10E0; stroke-width: 1.0;" x1="174" x2="369.5" y1="219.9082" y2="219.9082"/><text fill="#000000" font-family="sans-serif" font-size="13" lengthAdjust="spacingAndGlyphs" textLength="142" x="181" y="215.166">Converts to 0.001 ETH</text><polygon fill="#BD10E0" points="508.5,245.2188,518.5,249.2188,508.5,253.2188,512.5,249.2188" style="stroke: #BD10E0; stroke-width: 1.0;"/><line style="stroke: #BD10E0; stroke-width: 1.0;" x1="375.5" x2="514.5" y1="249.2188" y2="249.2188"/><text fill="#000000" font-family="sans-serif" font-size="13" lengthAdjust="spacingAndGlyphs" textLength="115" x="382.5" y="244.4766">Tx Fee 0.01 % ETH</text><polygon fill="#BD10E0" points="632.5,274.5293,642.5,278.5293,632.5,282.5293,636.5,278.5293" style="stroke: #BD10E0; stroke-width: 1.0;"/><line style="stroke: #BD10E0; stroke-width: 1.0;" x1="375.5" x2="638.5" y1="278.5293" y2="278.5293"/><text fill="#000000" font-family="sans-serif" font-size="13" lengthAdjust="spacingAndGlyphs" textLength="142" x="382.5" y="273.7871">Stakes 0.0009999 ETH</text><line style="stroke: #BD10E0; stroke-width: 1.0;" x1="375.5" x2="417.5" y1="307.8398" y2="307.8398"/><line style="stroke: #BD10E0; stroke-width: 1.0;" x1="417.5" x2="417.5" y1="307.8398" y2="320.8398"/><line style="stroke: #BD10E0; stroke-width: 1.0;" x1="376.5" x2="417.5" y1="320.8398" y2="320.8398"/><polygon fill="#BD10E0" points="386.5,316.8398,376.5,320.8398,386.5,324.8398,382.5,320.8398" style="stroke: #BD10E0; stroke-width: 1.0;"/><text fill="#000000" font-family="sans-serif" font-size="13" lengthAdjust="spacingAndGlyphs" textLength="84" x="382.5" y="303.0977">Mints 10 GLU</text><polygon fill="#BD10E0" points="782.5,346.1504,792.5,350.1504,782.5,354.1504,786.5,350.1504" style="stroke: #BD10E0; stroke-width: 1.0;"/><line style="stroke: #BD10E0; stroke-width: 1.0;" x1="375.5" x2="788.5" y1="350.1504" y2="350.1504"/><text fill="#000000" font-family="sans-serif" font-size="13" lengthAdjust="spacingAndGlyphs" textLength="158" x="382.5" y="345.4082">Creates token (+ 10 GLU)</text><polygon fill="#BD10E0" points="953.5,375.4609,963.5,379.4609,953.5,383.4609,957.5,379.4609" style="stroke: #BD10E0; stroke-width: 1.0;"/><line style="stroke: #BD10E0; stroke-width: 1.0;" x1="794.5" x2="959.5" y1="379.4609" y2="379.4609"/><text fill="#000000" font-family="sans-serif" font-size="13" lengthAdjust="spacingAndGlyphs" textLength="86" x="801.5" y="374.7188">Sends 10 GLU</text><polygon fill="#BD10E0" points="1083.5,404.7715,1093.5,408.7715,1083.5,412.7715,1087.5,408.7715" style="stroke: #BD10E0; stroke-width: 1.0;"/><line style="stroke: #BD10E0; stroke-width: 1.0;" x1="965.5" x2="1089.5" y1="408.7715" y2="408.7715"/><text fill="#000000" font-family="sans-serif" font-size="13" lengthAdjust="spacingAndGlyphs" textLength="90" x="972.5" y="404.0293">Stakes 10 GLU</text><polygon fill="#BD10E0" points="38.5,434.082,28.5,438.082,38.5,442.082,34.5,438.082" style="stroke: #BD10E0; stroke-width: 1.0;"/><line style="stroke: #BD10E0; stroke-width: 1.0;" x1="32.5" x2="964.5" y1="438.082" y2="438.082"/><text fill="#000000" font-family="sans-serif" font-size="13" lengthAdjust="spacingAndGlyphs" textLength="93" x="44.5" y="433.3398">Mints 500 THX</text><!--
@startuml
skinparam roundcorner 10
skinparam BoxPadding 10
skinparam headerFontColor #BD10E0
skinparam headerFontSize 18
skinparam sequence {
  ArrowColor #BD10E0
  GroupBackgroundColor #BD10E0
  GroupBorderColor #EDECFF
  GroupHeaderFontColor #ffffff
  BoxBorderColor #BD10E0
  BoxBackgroundColor #EDECFF
  BoxPadding 10

  ParticipantBorderColor #BD10E0
  ParticipantBackgroundColor #ffffff
  ParticipantPadding 10

  ActorBorderColor #BD10E0
  ActorBackgroundColor #ffffff
  EntityBorderColor #BD10E0
  EntityBackgroundColor #ffffff
  DatabaseBorderColor #BD10E0
  DatabaseBackgroundColor #ffffff

  LifeLineBorderColor #878787
}

hide footbox
title Alice uses USD to create THX tokens
actor Alice
box "3rd Party Exchange"
  participant "API" as Exchange
end box
box "Gluon Token"
  participant "Smart Contract" as GluonSC
  participant "Funding Pool" as FundingPool
  participant "ETH Pool" as ETHPool
end box
box "Gluon Token Factory"
  participant "Smart Contract" as GluonFactorySC
end box
box "Thanx Token"
  participant "Smart Contract" as ThanxSC
  participant "GLU Pool" as THXGLUPool
end box

Alice -> Exchange : Sends 10 USD
Exchange -> Exchange : Takes 0.10 USD Fee
Exchange -> GluonSC : Converts to 0.001 ETH
GluonSC -> FundingPool : Tx Fee 0.01 % ETH
GluonSC -> ETHPool : Stakes 0.0009999 ETH
GluonSC -> GluonSC : Mints 10 GLU
GluonSC -> GluonFactorySC : Creates token (+ 10 GLU)
GluonFactorySC -> ThanxSC : Sends 10 GLU

ThanxSC -> THXGLUPool : Stakes 10 GLU
ThanxSC -> Alice : Mints 500 THX

@enduml

PlantUML version 1.2018.03(Thu Apr 05 19:59:15 EEST 2018)
(GPL source distribution)
Java Runtime: Java(TM) SE Runtime Environment
JVM: Java HotSpot(TM) 64-Bit Server VM
Java Version: 1.8.0_144-b01
Operating System: Mac OS X
OS Version: 10.12.6
Default Encoding: UTF-8
Language: en
Country: US
--></g></svg>