<?xml version="1.0" encoding="UTF-8" standalone="no"?><svg xmlns="http://www.w3.org/2000/svg" xmlns:xlink="http://www.w3.org/1999/xlink" contentScriptType="application/ecmascript" contentStyleType="text/css" height="396px" preserveAspectRatio="none" style="width:978px;height:396px;" version="1.1" viewBox="0 0 978 396" width="978px" zoomAndPan="magnify"><defs><filter height="300%" id="fgfg4zsw2ndgn" width="300%" x="-1" y="-1"><feGaussianBlur result="blurOut" stdDeviation="2.0"/><feColorMatrix in="blurOut" result="blurOut2" type="matrix" values="0 0 0 0 0 0 0 0 0 0 0 0 0 0 0 0 0 0 .4 0"/><feOffset dx="4.0" dy="4.0" in="blurOut2" result="blurOut3"/><feBlend in="SourceGraphic" in2="blurOut3" mode="normal"/></filter></defs><g><text fill="#000000" font-family="sans-serif" font-size="14" font-weight="bold" lengthAdjust="spacingAndGlyphs" textLength="195" x="408.25" y="23.5352">Bob exchanges THX to USD</text><rect fill="#EDECFF" height="343.9727" rx="5" ry="5" style="stroke: #BD10E0; stroke-width: 1.0;" width="258" x="66.5" y="34.4883"/><text fill="#000000" font-family="sans-serif" font-size="13" font-weight="bold" lengthAdjust="spacingAndGlyphs" textLength="89" x="151" y="47.0566">Thanx Token</text><rect fill="#EDECFF" height="343.9727" rx="5" ry="5" style="stroke: #BD10E0; stroke-width: 1.0;" width="397" x="346.5" y="34.4883"/><text fill="#000000" font-family="sans-serif" font-size="13" font-weight="bold" lengthAdjust="spacingAndGlyphs" textLength="86" x="502" y="47.0566">Gluon Token</text><rect fill="#EDECFF" height="343.9727" rx="5" ry="5" style="stroke: #BD10E0; stroke-width: 1.0;" width="139" x="765.5" y="34.4883"/><text fill="#000000" font-family="sans-serif" font-size="13" font-weight="bold" lengthAdjust="spacingAndGlyphs" textLength="133" x="768.5" y="47.0566">3rd Party Exchange</text><line style="stroke: #878787; stroke-width: 1.0; stroke-dasharray: 5.0,5.0;" x1="24" x2="24" y1="116.9766" y2="384.4609"/><line style="stroke: #878787; stroke-width: 1.0; stroke-dasharray: 5.0,5.0;" x1="140.5" x2="140.5" y1="116.9766" y2="384.4609"/><line style="stroke: #878787; stroke-width: 1.0; stroke-dasharray: 5.0,5.0;" x1="270.5" x2="270.5" y1="116.9766" y2="384.4609"/><line style="stroke: #878787; stroke-width: 1.0; stroke-dasharray: 5.0,5.0;" x1="420.5" x2="420.5" y1="116.9766" y2="384.4609"/><line style="stroke: #878787; stroke-width: 1.0; stroke-dasharray: 5.0,5.0;" x1="565.5" x2="565.5" y1="116.9766" y2="384.4609"/><line style="stroke: #878787; stroke-width: 1.0; stroke-dasharray: 5.0,5.0;" x1="689.5" x2="689.5" y1="116.9766" y2="384.4609"/><line style="stroke: #878787; stroke-width: 1.0; stroke-dasharray: 5.0,5.0;" x1="835" x2="835" y1="116.9766" y2="384.4609"/><text fill="#000000" font-family="sans-serif" font-size="14" lengthAdjust="spacingAndGlyphs" textLength="26" x="8" y="114.0234">Bob</text><ellipse cx="24" cy="43.4883" fill="#FFFFFF" filter="url(#fgfg4zsw2ndgn)" rx="8" ry="8" style="stroke: #BD10E0; stroke-width: 2.0;"/><path d="M24,51.4883 L24,78.4883 M11,59.4883 L37,59.4883 M24,78.4883 L11,93.4883 M24,78.4883 L37,93.4883 " fill="none" filter="url(#fgfg4zsw2ndgn)" style="stroke: #BD10E0; stroke-width: 2.0;"/><rect fill="#FFFFFF" filter="url(#fgfg4zsw2ndgn)" height="30.4883" rx="5" ry="5" style="stroke: #BD10E0; stroke-width: 1.5;" width="117" x="80.5" y="81.4883"/><text fill="#000000" font-family="sans-serif" font-size="14" lengthAdjust="spacingAndGlyphs" textLength="103" x="87.5" y="102.0234">Smart Contract</text><rect fill="#FFFFFF" filter="url(#fgfg4zsw2ndgn)" height="30.4883" rx="5" ry="5" style="stroke: #BD10E0; stroke-width: 1.5;" width="75" x="231.5" y="81.4883"/><text fill="#000000" font-family="sans-serif" font-size="14" lengthAdjust="spacingAndGlyphs" textLength="61" x="238.5" y="102.0234">GLU Pool</text><rect fill="#FFFFFF" filter="url(#fgfg4zsw2ndgn)" height="30.4883" rx="5" ry="5" style="stroke: #BD10E0; stroke-width: 1.5;" width="117" x="360.5" y="81.4883"/><text fill="#000000" font-family="sans-serif" font-size="14" lengthAdjust="spacingAndGlyphs" textLength="103" x="367.5" y="102.0234">Smart Contract</text><rect fill="#FFFFFF" filter="url(#fgfg4zsw2ndgn)" height="30.4883" rx="5" ry="5" style="stroke: #BD10E0; stroke-width: 1.5;" width="105" x="511.5" y="81.4883"/><text fill="#000000" font-family="sans-serif" font-size="14" lengthAdjust="spacingAndGlyphs" textLength="91" x="518.5" y="102.0234">Funding Pool</text><rect fill="#FFFFFF" filter="url(#fgfg4zsw2ndgn)" height="30.4883" rx="5" ry="5" style="stroke: #BD10E0; stroke-width: 1.5;" width="75" x="650.5" y="81.4883"/><text fill="#000000" font-family="sans-serif" font-size="14" lengthAdjust="spacingAndGlyphs" textLength="61" x="657.5" y="102.0234">ETH Pool</text><rect fill="#FFFFFF" filter="url(#fgfg4zsw2ndgn)" height="30.4883" rx="5" ry="5" style="stroke: #BD10E0; stroke-width: 1.5;" width="36" x="815" y="81.4883"/><text fill="#000000" font-family="sans-serif" font-size="14" lengthAdjust="spacingAndGlyphs" textLength="22" x="822" y="102.0234">API</text><polygon fill="#BD10E0" points="129,144.2871,139,148.2871,129,152.2871,133,148.2871" style="stroke: #BD10E0; stroke-width: 1.0;"/><line style="stroke: #BD10E0; stroke-width: 1.0;" x1="24" x2="135" y1="148.2871" y2="148.2871"/><text fill="#000000" font-family="sans-serif" font-size="13" lengthAdjust="spacingAndGlyphs" textLength="93" x="31" y="143.5449">Burns 500 THX</text><polygon fill="#BD10E0" points="152,173.5977,142,177.5977,152,181.5977,148,177.5977" style="stroke: #BD10E0; stroke-width: 1.0;"/><line style="stroke: #BD10E0; stroke-width: 1.0;" x1="146" x2="270" y1="177.5977" y2="177.5977"/><text fill="#000000" font-family="sans-serif" font-size="13" lengthAdjust="spacingAndGlyphs" textLength="86" x="158" y="172.8555">Takes 10 GLU</text><polygon fill="#BD10E0" points="409,202.9082,419,206.9082,409,210.9082,413,206.9082" style="stroke: #BD10E0; stroke-width: 1.0;"/><line style="stroke: #BD10E0; stroke-width: 1.0;" x1="141" x2="415" y1="206.9082" y2="206.9082"/><text fill="#000000" font-family="sans-serif" font-size="13" lengthAdjust="spacingAndGlyphs" textLength="84" x="148" y="202.166">Burns 10 GLU</text><polygon fill="#BD10E0" points="432,232.2188,422,236.2188,432,240.2188,428,236.2188" style="stroke: #BD10E0; stroke-width: 1.0;"/><line style="stroke: #BD10E0; stroke-width: 1.0;" x1="426" x2="689" y1="236.2188" y2="236.2188"/><text fill="#000000" font-family="sans-serif" font-size="13" lengthAdjust="spacingAndGlyphs" textLength="138" x="438" y="231.4766">Takes 0.0009999 ETH</text><polygon fill="#BD10E0" points="554,261.5293,564,265.5293,554,269.5293,558,265.5293" style="stroke: #BD10E0; stroke-width: 1.0;"/><line style="stroke: #BD10E0; stroke-width: 1.0;" x1="421" x2="560" y1="265.5293" y2="265.5293"/><text fill="#000000" font-family="sans-serif" font-size="13" lengthAdjust="spacingAndGlyphs" textLength="115" x="428" y="260.7871">Tx Fee 0.01 % ETH</text><polygon fill="#BD10E0" points="823,290.8398,833,294.8398,823,298.8398,827,294.8398" style="stroke: #BD10E0; stroke-width: 1.0;"/><line style="stroke: #BD10E0; stroke-width: 1.0;" x1="421" x2="829" y1="294.8398" y2="294.8398"/><text fill="#000000" font-family="sans-serif" font-size="13" lengthAdjust="spacingAndGlyphs" textLength="138" x="428" y="290.0977">Sends 0.0009998 ETH</text><line style="stroke: #BD10E0; stroke-width: 1.0;" x1="835" x2="877" y1="324.1504" y2="324.1504"/><line style="stroke: #BD10E0; stroke-width: 1.0;" x1="877" x2="877" y1="324.1504" y2="337.1504"/><line style="stroke: #BD10E0; stroke-width: 1.0;" x1="836" x2="877" y1="337.1504" y2="337.1504"/><polygon fill="#BD10E0" points="846,333.1504,836,337.1504,846,341.1504,842,337.1504" style="stroke: #BD10E0; stroke-width: 1.0;"/><text fill="#000000" font-family="sans-serif" font-size="13" lengthAdjust="spacingAndGlyphs" textLength="124" x="842" y="319.4082">Takes 0.10 USD Fee</text><polygon fill="#BD10E0" points="35,362.4609,25,366.4609,35,370.4609,31,366.4609" style="stroke: #BD10E0; stroke-width: 1.0;"/><line style="stroke: #BD10E0; stroke-width: 1.0;" x1="29" x2="834" y1="366.4609" y2="366.4609"/><text fill="#000000" font-family="sans-serif" font-size="13" lengthAdjust="spacingAndGlyphs" textLength="110" x="41" y="361.7188">Converts 8.9 USD</text><!--
@startuml
skinparam roundcorner 10
skinparam BoxPadding 10
skinparam headerFontColor #BD10E0
skinparam headerFontSize 18
skinparam sequence {
  ArrowColor #BD10E0
  GroupBackgroundColor #BD10E0
  GroupBorderColor #EDECFF
  GroupHeaderFontColor #ffffff
  BoxBorderColor #BD10E0
  BoxBackgroundColor #EDECFF
  BoxPadding 10

  ParticipantBorderColor #BD10E0
  ParticipantBackgroundColor #ffffff
  ParticipantPadding 10

  ActorBorderColor #BD10E0
  ActorBackgroundColor #ffffff
  EntityBorderColor #BD10E0
  EntityBackgroundColor #ffffff
  DatabaseBorderColor #BD10E0
  DatabaseBackgroundColor #ffffff

  LifeLineBorderColor #878787
}

hide footbox
title Bob exchanges THX to USD
actor Bob
box "Thanx Token"
  participant "Smart Contract" as ThanxSC
  participant "GLU Pool" as THXGLUPool
end box
box "Gluon Token"
  participant "Smart Contract" as GluonSC
  participant "Funding Pool" as FundingPool
  participant "ETH Pool" as ETHPool
end box
box "3rd Party Exchange"
  participant "API" as Exchange
end box

Bob -> ThanxSC : Burns 500 THX
ThanxSC <- THXGLUPool : Takes 10 GLU
ThanxSC -> GluonSC : Burns 10 GLU
GluonSC <- ETHPool : Takes 0.0009999 ETH
GluonSC -> FundingPool : Tx Fee 0.01 % ETH
GluonSC -> Exchange : Sends 0.0009998 ETH
Exchange -> Exchange : Takes 0.10 USD Fee
Exchange -> Bob : Converts 8.9 USD

@enduml

PlantUML version 1.2018.03(Thu Apr 05 19:59:15 EEST 2018)
(GPL source distribution)
Java Runtime: Java(TM) SE Runtime Environment
JVM: Java HotSpot(TM) 64-Bit Server VM
Java Version: 1.8.0_144-b01
Operating System: Mac OS X
OS Version: 10.12.6
Default Encoding: UTF-8
Language: en
Country: US
--></g></svg>