<?xml version="1.0" encoding="UTF-8" standalone="no"?><svg xmlns="http://www.w3.org/2000/svg" xmlns:xlink="http://www.w3.org/1999/xlink" contentScriptType="application/ecmascript" contentStyleType="text/css" height="481px" preserveAspectRatio="none" style="width:978px;height:481px;" version="1.1" viewBox="0 0 978 481" width="978px" zoomAndPan="magnify"><defs><filter height="300%" id="f1xhu07uq2bfd3" width="300%" x="-1" y="-1"><feGaussianBlur result="blurOut" stdDeviation="2.0"/><feColorMatrix in="blurOut" result="blurOut2" type="matrix" values="0 0 0 0 0 0 0 0 0 0 0 0 0 0 0 0 0 0 .4 0"/><feOffset dx="4.0" dy="4.0" in="blurOut2" result="blurOut3"/><feBlend in="SourceGraphic" in2="blurOut3" mode="normal"/></filter></defs><g><text fill="#000000" font-family="sans-serif" font-size="14" font-weight="bold" lengthAdjust="spacingAndGlyphs" textLength="307" x="335" y="23.5352">Alice uses USD to send THX tokens to Bob</text><rect fill="#EDECFF" height="436.4609" rx="5" ry="5" style="stroke: #BD10E0; stroke-width: 1.0;" width="397" x="244" y="34.4883"/><text fill="#000000" font-family="sans-serif" font-size="13" font-weight="bold" lengthAdjust="spacingAndGlyphs" textLength="86" x="399.5" y="47.0566">Gluon Token</text><rect fill="#EDECFF" height="436.4609" rx="5" ry="5" style="stroke: #BD10E0; stroke-width: 1.0;" width="258" x="663" y="34.4883"/><text fill="#000000" font-family="sans-serif" font-size="13" font-weight="bold" lengthAdjust="spacingAndGlyphs" textLength="89" x="747.5" y="47.0566">Thanx Token</text><line style="stroke: #878787; stroke-width: 1.0; stroke-dasharray: 5.0,5.0;" x1="27" x2="27" y1="116.9766" y2="384.4609"/><line style="stroke: #878787; stroke-width: 1.0; stroke-dasharray: 5.0,5.0;" x1="142" x2="142" y1="116.9766" y2="384.4609"/><line style="stroke: #878787; stroke-width: 1.0; stroke-dasharray: 5.0,5.0;" x1="318" x2="318" y1="116.9766" y2="384.4609"/><line style="stroke: #878787; stroke-width: 1.0; stroke-dasharray: 5.0,5.0;" x1="463" x2="463" y1="116.9766" y2="384.4609"/><line style="stroke: #878787; stroke-width: 1.0; stroke-dasharray: 5.0,5.0;" x1="587" x2="587" y1="116.9766" y2="384.4609"/><line style="stroke: #878787; stroke-width: 1.0; stroke-dasharray: 5.0,5.0;" x1="737" x2="737" y1="116.9766" y2="384.4609"/><line style="stroke: #878787; stroke-width: 1.0; stroke-dasharray: 5.0,5.0;" x1="867" x2="867" y1="116.9766" y2="384.4609"/><line style="stroke: #878787; stroke-width: 1.0; stroke-dasharray: 5.0,5.0;" x1="953" x2="953" y1="116.9766" y2="384.4609"/><text fill="#000000" font-family="sans-serif" font-size="14" lengthAdjust="spacingAndGlyphs" textLength="33" x="8" y="114.0234">Alice</text><ellipse cx="27.5" cy="43.4883" fill="#FFFFFF" filter="url(#f1xhu07uq2bfd3)" rx="8" ry="8" style="stroke: #BD10E0; stroke-width: 2.0;"/><path d="M27.5,51.4883 L27.5,78.4883 M14.5,59.4883 L40.5,59.4883 M27.5,78.4883 L14.5,93.4883 M27.5,78.4883 L40.5,93.4883 " fill="none" filter="url(#f1xhu07uq2bfd3)" style="stroke: #BD10E0; stroke-width: 2.0;"/><text fill="#000000" font-family="sans-serif" font-size="14" lengthAdjust="spacingAndGlyphs" textLength="33" x="8" y="396.9961">Alice</text><ellipse cx="27.5" cy="409.9492" fill="#FFFFFF" filter="url(#f1xhu07uq2bfd3)" rx="8" ry="8" style="stroke: #BD10E0; stroke-width: 2.0;"/><path d="M27.5,417.9492 L27.5,444.9492 M14.5,425.9492 L40.5,425.9492 M27.5,444.9492 L14.5,459.9492 M27.5,444.9492 L40.5,459.9492 " fill="none" filter="url(#f1xhu07uq2bfd3)" style="stroke: #BD10E0; stroke-width: 2.0;"/><rect fill="#FFFFFF" filter="url(#f1xhu07uq2bfd3)" height="30.4883" rx="5" ry="5" style="stroke: #BD10E0; stroke-width: 1.5;" width="147" x="67" y="81.4883"/><text fill="#000000" font-family="sans-serif" font-size="14" lengthAdjust="spacingAndGlyphs" textLength="133" x="74" y="102.0234">3rd Party Exchange</text><rect fill="#FFFFFF" filter="url(#f1xhu07uq2bfd3)" height="30.4883" rx="5" ry="5" style="stroke: #BD10E0; stroke-width: 1.5;" width="147" x="67" y="383.4609"/><text fill="#000000" font-family="sans-serif" font-size="14" lengthAdjust="spacingAndGlyphs" textLength="133" x="74" y="403.9961">3rd Party Exchange</text><rect fill="#FFFFFF" filter="url(#f1xhu07uq2bfd3)" height="30.4883" rx="5" ry="5" style="stroke: #BD10E0; stroke-width: 1.5;" width="117" x="258" y="81.4883"/><text fill="#000000" font-family="sans-serif" font-size="14" lengthAdjust="spacingAndGlyphs" textLength="103" x="265" y="102.0234">Smart Contract</text><rect fill="#FFFFFF" filter="url(#f1xhu07uq2bfd3)" height="30.4883" rx="5" ry="5" style="stroke: #BD10E0; stroke-width: 1.5;" width="117" x="258" y="383.4609"/><text fill="#000000" font-family="sans-serif" font-size="14" lengthAdjust="spacingAndGlyphs" textLength="103" x="265" y="403.9961">Smart Contract</text><rect fill="#FFFFFF" filter="url(#f1xhu07uq2bfd3)" height="30.4883" rx="5" ry="5" style="stroke: #BD10E0; stroke-width: 1.5;" width="105" x="409" y="81.4883"/><text fill="#000000" font-family="sans-serif" font-size="14" lengthAdjust="spacingAndGlyphs" textLength="91" x="416" y="102.0234">Funding Pool</text><rect fill="#FFFFFF" filter="url(#f1xhu07uq2bfd3)" height="30.4883" rx="5" ry="5" style="stroke: #BD10E0; stroke-width: 1.5;" width="105" x="409" y="383.4609"/><text fill="#000000" font-family="sans-serif" font-size="14" lengthAdjust="spacingAndGlyphs" textLength="91" x="416" y="403.9961">Funding Pool</text><rect fill="#FFFFFF" filter="url(#f1xhu07uq2bfd3)" height="30.4883" rx="5" ry="5" style="stroke: #BD10E0; stroke-width: 1.5;" width="75" x="548" y="81.4883"/><text fill="#000000" font-family="sans-serif" font-size="14" lengthAdjust="spacingAndGlyphs" textLength="61" x="555" y="102.0234">ETH Pool</text><rect fill="#FFFFFF" filter="url(#f1xhu07uq2bfd3)" height="30.4883" rx="5" ry="5" style="stroke: #BD10E0; stroke-width: 1.5;" width="75" x="548" y="383.4609"/><text fill="#000000" font-family="sans-serif" font-size="14" lengthAdjust="spacingAndGlyphs" textLength="61" x="555" y="403.9961">ETH Pool</text><rect fill="#FFFFFF" filter="url(#f1xhu07uq2bfd3)" height="30.4883" rx="5" ry="5" style="stroke: #BD10E0; stroke-width: 1.5;" width="117" x="677" y="81.4883"/><text fill="#000000" font-family="sans-serif" font-size="14" lengthAdjust="spacingAndGlyphs" textLength="103" x="684" y="102.0234">Smart Contract</text><rect fill="#FFFFFF" filter="url(#f1xhu07uq2bfd3)" height="30.4883" rx="5" ry="5" style="stroke: #BD10E0; stroke-width: 1.5;" width="117" x="677" y="383.4609"/><text fill="#000000" font-family="sans-serif" font-size="14" lengthAdjust="spacingAndGlyphs" textLength="103" x="684" y="403.9961">Smart Contract</text><rect fill="#FFFFFF" filter="url(#f1xhu07uq2bfd3)" height="30.4883" rx="5" ry="5" style="stroke: #BD10E0; stroke-width: 1.5;" width="75" x="828" y="81.4883"/><text fill="#000000" font-family="sans-serif" font-size="14" lengthAdjust="spacingAndGlyphs" textLength="61" x="835" y="102.0234">GLU Pool</text><rect fill="#FFFFFF" filter="url(#f1xhu07uq2bfd3)" height="30.4883" rx="5" ry="5" style="stroke: #BD10E0; stroke-width: 1.5;" width="75" x="828" y="383.4609"/><text fill="#000000" font-family="sans-serif" font-size="14" lengthAdjust="spacingAndGlyphs" textLength="61" x="835" y="403.9961">GLU Pool</text><text fill="#000000" font-family="sans-serif" font-size="14" lengthAdjust="spacingAndGlyphs" textLength="26" x="937" y="114.0234">Bob</text><ellipse cx="953" cy="43.4883" fill="#FFFFFF" filter="url(#f1xhu07uq2bfd3)" rx="8" ry="8" style="stroke: #BD10E0; stroke-width: 2.0;"/><path d="M953,51.4883 L953,78.4883 M940,59.4883 L966,59.4883 M953,78.4883 L940,93.4883 M953,78.4883 L966,93.4883 " fill="none" filter="url(#f1xhu07uq2bfd3)" style="stroke: #BD10E0; stroke-width: 2.0;"/><text fill="#000000" font-family="sans-serif" font-size="14" lengthAdjust="spacingAndGlyphs" textLength="26" x="937" y="396.9961">Bob</text><ellipse cx="953" cy="409.9492" fill="#FFFFFF" filter="url(#f1xhu07uq2bfd3)" rx="8" ry="8" style="stroke: #BD10E0; stroke-width: 2.0;"/><path d="M953,417.9492 L953,444.9492 M940,425.9492 L966,425.9492 M953,444.9492 L940,459.9492 M953,444.9492 L966,459.9492 " fill="none" filter="url(#f1xhu07uq2bfd3)" style="stroke: #BD10E0; stroke-width: 2.0;"/><polygon fill="#BD10E0" points="130.5,144.2871,140.5,148.2871,130.5,152.2871,134.5,148.2871" style="stroke: #BD10E0; stroke-width: 1.0;"/><line style="stroke: #BD10E0; stroke-width: 1.0;" x1="27.5" x2="136.5" y1="148.2871" y2="148.2871"/><text fill="#000000" font-family="sans-serif" font-size="13" lengthAdjust="spacingAndGlyphs" textLength="87" x="34.5" y="143.5449">Sends 10 USD</text><line style="stroke: #BD10E0; stroke-width: 1.0;" x1="142.5" x2="184.5" y1="177.5977" y2="177.5977"/><line style="stroke: #BD10E0; stroke-width: 1.0;" x1="184.5" x2="184.5" y1="177.5977" y2="190.5977"/><line style="stroke: #BD10E0; stroke-width: 1.0;" x1="143.5" x2="184.5" y1="190.5977" y2="190.5977"/><polygon fill="#BD10E0" points="153.5,186.5977,143.5,190.5977,153.5,194.5977,149.5,190.5977" style="stroke: #BD10E0; stroke-width: 1.0;"/><text fill="#000000" font-family="sans-serif" font-size="13" lengthAdjust="spacingAndGlyphs" textLength="124" x="149.5" y="172.8555">Takes 0.10 USD Fee</text><polygon fill="#BD10E0" points="306.5,215.9082,316.5,219.9082,306.5,223.9082,310.5,219.9082" style="stroke: #BD10E0; stroke-width: 1.0;"/><line style="stroke: #BD10E0; stroke-width: 1.0;" x1="142.5" x2="312.5" y1="219.9082" y2="219.9082"/><text fill="#000000" font-family="sans-serif" font-size="13" lengthAdjust="spacingAndGlyphs" textLength="142" x="149.5" y="215.166">Converts to 0.001 ETH</text><polygon fill="#BD10E0" points="451.5,245.2188,461.5,249.2188,451.5,253.2188,455.5,249.2188" style="stroke: #BD10E0; stroke-width: 1.0;"/><line style="stroke: #BD10E0; stroke-width: 1.0;" x1="318.5" x2="457.5" y1="249.2188" y2="249.2188"/><text fill="#000000" font-family="sans-serif" font-size="13" lengthAdjust="spacingAndGlyphs" textLength="115" x="325.5" y="244.4766">Tx Fee 0.01 % ETH</text><polygon fill="#BD10E0" points="575.5,274.5293,585.5,278.5293,575.5,282.5293,579.5,278.5293" style="stroke: #BD10E0; stroke-width: 1.0;"/><line style="stroke: #BD10E0; stroke-width: 1.0;" x1="318.5" x2="581.5" y1="278.5293" y2="278.5293"/><text fill="#000000" font-family="sans-serif" font-size="13" lengthAdjust="spacingAndGlyphs" textLength="142" x="325.5" y="273.7871">Stakes 0.0009999 ETH</text><polygon fill="#BD10E0" points="725.5,303.8398,735.5,307.8398,725.5,311.8398,729.5,307.8398" style="stroke: #BD10E0; stroke-width: 1.0;"/><line style="stroke: #BD10E0; stroke-width: 1.0;" x1="318.5" x2="731.5" y1="307.8398" y2="307.8398"/><text fill="#000000" font-family="sans-serif" font-size="13" lengthAdjust="spacingAndGlyphs" textLength="84" x="325.5" y="303.0977">Mints 10 GLU</text><polygon fill="#BD10E0" points="855.5,333.1504,865.5,337.1504,855.5,341.1504,859.5,337.1504" style="stroke: #BD10E0; stroke-width: 1.0;"/><line style="stroke: #BD10E0; stroke-width: 1.0;" x1="737.5" x2="861.5" y1="337.1504" y2="337.1504"/><text fill="#000000" font-family="sans-serif" font-size="13" lengthAdjust="spacingAndGlyphs" textLength="90" x="744.5" y="332.4082">Stakes 10 GLU</text><polygon fill="#BD10E0" points="941,362.4609,951,366.4609,941,370.4609,945,366.4609" style="stroke: #BD10E0; stroke-width: 1.0;"/><line style="stroke: #BD10E0; stroke-width: 1.0;" x1="737.5" x2="947" y1="366.4609" y2="366.4609"/><text fill="#000000" font-family="sans-serif" font-size="13" lengthAdjust="spacingAndGlyphs" textLength="93" x="744.5" y="361.7188">Mints 500 THX</text><!--
@startuml
skinparam roundcorner 10
skinparam BoxPadding 10
skinparam headerFontColor #BD10E0
skinparam headerFontSize 18
skinparam sequence {
  ArrowColor #BD10E0
  GroupBackgroundColor #BD10E0
  GroupBorderColor #EDECFF
  GroupHeaderFontColor #ffffff
  BoxBorderColor #BD10E0
  BoxBackgroundColor #EDECFF
  BoxPadding 10

  ParticipantBorderColor #BD10E0
  ParticipantBackgroundColor #ffffff
  ParticipantPadding 10

  ActorBorderColor #BD10E0
  ActorBackgroundColor #ffffff
  EntityBorderColor #BD10E0
  EntityBackgroundColor #ffffff
  DatabaseBorderColor #BD10E0
  DatabaseBackgroundColor #ffffff

  LifeLineBorderColor #878787
}

title Alice uses USD to send THX tokens to Bob 
actor Alice
participant "3rd Party Exchange" as Exchange
box "Gluon Token"
  participant "Smart Contract" as GluonSC
  participant "Funding Pool" as FundingPool
  participant "ETH Pool" as ETHPool
end box
box "Thanx Token"
  participant "Smart Contract" as ThanxSC
  participant "GLU Pool" as THXGLUPool
end box
actor Bob

Alice -> Exchange : Sends 10 USD
Exchange -> Exchange : Takes 0.10 USD Fee
Exchange -> GluonSC : Converts to 0.001 ETH
GluonSC -> FundingPool : Tx Fee 0.01 % ETH
GluonSC -> ETHPool : Stakes 0.0009999 ETH
GluonSC -> ThanxSC : Mints 10 GLU
ThanxSC -> THXGLUPool : Stakes 10 GLU
ThanxSC -> Bob : Mints 500 THX

@enduml

PlantUML version 1.2018.03(Thu Apr 05 19:59:15 EEST 2018)
(GPL source distribution)
Java Runtime: Java(TM) SE Runtime Environment
JVM: Java HotSpot(TM) 64-Bit Server VM
Java Version: 1.8.0_144-b01
Operating System: Mac OS X
OS Version: 10.12.6
Default Encoding: UTF-8
Language: en
Country: US
--></g></svg>